<?xml version="1.0" standalone="no"?>
<!DOCTYPE svg PUBLIC "-//W3C//DTD SVG 20010904//EN"
 "http://www.w3.org/TR/2001/REC-SVG-20010904/DTD/svg10.dtd">
<svg version="1.0" xmlns="http://www.w3.org/2000/svg"
 width="192.000000pt" height="192.000000pt" viewBox="0 0 192.000000 192.000000"
 preserveAspectRatio="xMidYMid meet">

<g transform="translate(0.000000,192.000000) scale(0.100000,-0.100000)"
fill="#000000" stroke="none">
<path d="M793 1906 c-97 -19 -164 -41 -255 -86 -113 -56 -163 -93 -263 -195
-127 -129 -207 -273 -252 -451 -24 -95 -24 -333 0 -428 46 -182 125 -323 257
-456 137 -139 280 -220 466 -267 95 -24 333 -24 428 0 185 46 324 125 461 262
137 137 216 276 262 461 24 95 24 333 0 428 -46 185 -125 324 -262 461 -136
136 -277 216 -456 260 -90 22 -296 28 -386 11z m301 -396 c107 -27 190 -74
267 -150 222 -222 222 -578 0 -801 -103 -103 -234 -161 -365 -161 -109 0 -183
37 -286 141 -249 252 -252 641 -6 901 42 45 57 54 120 70 93 25 175 25 270 0z
m-364 -24 c0 -2 -26 -19 -57 -36 -75 -43 -170 -140 -209 -215 -55 -105 -69
-160 -69 -275 0 -163 51 -287 165 -400 130 -129 241 -175 425 -175 118 0 122
1 250 47 72 26 155 52 184 59 63 13 287 8 314 -7 17 -10 14 -15 -26 -70 -258
-350 -792 -472 -1167 -267 -101 56 -225 187 -277 293 -61 123 -77 193 -77 335
-1 96 4 136 22 199 38 132 95 230 186 322 87 86 159 133 265 170 74 26 71 26
71 20z"/>
</g>
</svg>
