<?xml version="1.0" standalone="no"?>
<!DOCTYPE svg PUBLIC "-//W3C//DTD SVG 20010904//EN"
 "http://www.w3.org/TR/2001/REC-SVG-20010904/DTD/svg10.dtd">
<svg version="1.0" xmlns="http://www.w3.org/2000/svg"
 width="753.000000pt" height="459.000000pt" viewBox="0 0 753.000000 459.000000"
 preserveAspectRatio="xMidYMid meet">

<g transform="translate(0.000000,459.000000) scale(0.100000,-0.100000)"
fill="#000000" stroke="none">
<path d="M46 4582 c-3 -6 -1 -14 5 -17 15 -10 25 3 12 16 -7 7 -13 7 -17 1z"/>
<path d="M900 4580 c0 -5 5 -10 11 -10 5 0 7 5 4 10 -3 6 -8 10 -11 10 -2 0
-4 -4 -4 -10z"/>
<path d="M3205 4538 c28 -29 51 -55 53 -57 1 -2 2 0 2 5 -1 12 -84 104 -95
104 -5 0 13 -24 40 -52z"/>
<path d="M4030 4589 c0 -4 7 -22 15 -40 8 -19 14 -27 14 -19 0 14 -28 72 -29
59z"/>
<path d="M6190 4582 c0 -5 17 -16 38 -25 41 -18 126 -17 347 3 253 24 244 27
-72 29 -172 0 -313 -3 -313 -7z"/>
<path d="M401 4564 c0 -11 3 -14 6 -6 3 7 2 16 -1 19 -3 4 -6 -2 -5 -13z"/>
<path d="M965 4550 c3 -5 8 -10 11 -10 2 0 4 5 4 10 0 6 -5 10 -11 10 -5 0 -7
-4 -4 -10z"/>
<path d="M140 4535 c0 -8 5 -15 10 -15 6 0 10 7 10 15 0 8 -4 15 -10 15 -5 0
-10 -7 -10 -15z"/>
<path d="M475 4530 c3 -5 8 -10 11 -10 2 0 4 5 4 10 0 6 -5 10 -11 10 -5 0 -7
-4 -4 -10z"/>
<path d="M5010 4520 c0 -5 6 -10 13 -11 6 0 3 -4 -8 -9 -20 -8 -19 -9 1 -9 12
-1 38 -8 57 -16 47 -19 83 -19 147 2 65 21 52 27 -84 42 -117 13 -126 14 -126
1z"/>
<path d="M550 4500 c0 -5 5 -10 10 -10 6 0 10 5 10 10 0 6 -4 10 -10 10 -5 0
-10 -4 -10 -10z"/>
<path d="M4071 4494 c0 -11 3 -14 6 -6 3 7 2 16 -1 19 -3 4 -6 -2 -5 -13z"/>
<path d="M900 4470 c0 -5 5 -10 11 -10 5 0 7 5 4 10 -3 6 -8 10 -11 10 -2 0
-4 -4 -4 -10z"/>
<path d="M50 4436 c0 -9 5 -16 10 -16 6 0 10 4 10 9 0 6 -4 13 -10 16 -5 3
-10 -1 -10 -9z"/>
<path d="M965 4440 c3 -5 8 -10 11 -10 2 0 4 5 4 10 0 6 -5 10 -11 10 -5 0 -7
-4 -4 -10z"/>
<path d="M5840 4433 c-8 -3 -27 -17 -42 -30 -23 -22 -88 -43 -140 -46 -10 -1
-18 -7 -18 -14 0 -7 -5 -13 -11 -13 -5 0 -7 5 -3 11 4 7 1 10 -7 7 -8 -3 -16
-15 -17 -28 -3 -18 -6 -20 -13 -9 -7 11 -9 9 -9 -8 0 -12 -9 -27 -20 -33 -14
-7 -20 -21 -20 -44 0 -25 -5 -35 -20 -39 -12 -3 -20 -14 -20 -26 0 -23 -18
-28 -26 -7 -7 18 -55 8 -72 -16 -7 -10 -17 -16 -22 -13 -12 8 -60 -65 -60 -91
0 -12 -7 -24 -15 -28 -8 -3 -15 -11 -15 -19 0 -19 -46 -60 -59 -52 -15 9 -13
-5 4 -35 19 -33 21 -61 3 -38 -7 9 -30 20 -52 24 l-38 7 17 -27 c15 -22 15
-26 2 -26 -9 0 -17 -13 -20 -32 -6 -43 9 -58 24 -24 7 14 17 25 23 23 16 -5
14 -93 -2 -89 -9 1 -11 -12 -6 -55 4 -32 10 -65 14 -73 11 -22 15 -83 7 -97
-5 -7 1 -18 13 -25 11 -7 20 -22 20 -34 0 -31 -55 -73 -101 -79 -14 -1 -84
-48 -171 -115 -14 -11 -31 -20 -37 -20 -5 0 -31 -11 -57 -25 -26 -14 -55 -25
-65 -25 -10 0 -21 -5 -25 -11 -5 -9 9 -10 49 -5 67 9 65 15 71 -151 4 -102 3
-115 -15 -135 l-20 -23 4 47 c3 29 0 49 -7 52 -7 3 -7 5 2 5 6 1 12 5 12 10 0
5 -9 7 -20 4 -11 -3 -20 -1 -20 3 0 13 -98 119 -104 113 -5 -5 56 -141 111
-248 21 -41 43 -52 43 -21 0 19 4 22 33 18 17 -3 62 -13 99 -23 37 -11 71 -15
75 -11 4 5 3 11 -3 13 -25 9 -48 32 -41 40 5 4 13 0 18 -10 6 -9 20 -17 33
-17 25 0 36 -21 36 -70 0 -14 7 -36 16 -48 l15 -22 37 40 c22 23 42 37 48 32
6 -4 20 -72 32 -152 12 -80 24 -163 28 -185 4 -22 7 -128 7 -235 l0 -195 -28
3 c-17 2 -32 -3 -40 -15 -11 -14 -16 -16 -26 -5 -7 6 -20 12 -29 12 -8 0 -20
8 -25 18 -6 11 -32 49 -60 86 -27 37 -62 89 -76 114 -14 26 -42 73 -62 104
-21 31 -37 62 -37 68 0 5 -4 10 -8 10 -4 0 -24 21 -43 48 -19 26 -69 91 -110
145 -114 151 -158 218 -177 270 -15 42 -32 62 -32 37 0 -53 46 -162 202 -475
99 -198 184 -368 189 -378 6 -10 7 -27 4 -38 -4 -11 -2 -19 4 -19 6 0 10 -3 9
-7 -4 -17 14 -53 24 -47 6 4 8 2 5 -4 -4 -5 26 -68 67 -139 l74 -128 -47 -8
c-25 -4 -63 -12 -83 -16 -23 -5 -40 -5 -47 2 -9 9 -180 -2 -246 -17 -11 -2
-55 -5 -97 -5 -67 -1 -80 -4 -100 -24 -13 -13 -52 -44 -88 -69 -76 -54 -100
-79 -128 -133 -12 -22 -21 -35 -22 -29 0 21 34 80 77 132 25 28 42 52 39 52
-4 0 -27 -11 -54 -24 -26 -13 -62 -30 -80 -37 -22 -10 -49 -37 -80 -83 -57
-83 -81 -98 -56 -34 10 23 28 59 41 78 13 19 23 46 23 60 1 14 7 36 15 50 20
35 18 46 -4 26 -11 -10 -25 -19 -33 -20 -7 -2 -22 -7 -32 -11 -18 -8 -18 -9
-1 -21 15 -12 17 -18 7 -39 -15 -33 -42 -33 -42 1 0 20 -4 25 -16 20 -9 -3
-18 -6 -20 -6 -2 0 -4 -5 -4 -11 0 -5 5 -7 11 -3 7 4 10 -1 7 -12 -2 -11 -13
-23 -25 -29 -12 -5 -26 -18 -31 -29 -7 -16 -19 0 -72 99 -58 110 -62 121 -51
150 15 43 14 56 -6 71 -12 9 -14 13 -5 14 7 0 11 4 7 9 -3 5 -1 12 5 16 17 10
12 73 -6 83 -12 6 -15 18 -12 36 l5 26 -55 -30 c-31 -17 -59 -27 -63 -23 -4 5
-26 44 -49 88 -23 44 -47 85 -52 90 -6 6 19 -48 56 -119 36 -71 63 -133 59
-139 -3 -6 -1 -7 5 -3 13 8 24 -25 16 -50 -4 -14 -3 -15 4 -5 12 16 27 -3 16
-21 -4 -6 -3 -8 3 -5 6 4 14 0 17 -9 3 -9 2 -12 -4 -9 -7 4 -9 -4 -6 -22 3
-15 10 -29 16 -31 5 -2 10 -10 10 -18 0 -8 18 -49 40 -91 22 -43 40 -82 40
-89 0 -6 -32 -22 -71 -34 -56 -18 -69 -26 -57 -34 21 -16 37 -69 27 -88 -5 -9
-57 -35 -116 -59 -60 -23 -110 -46 -113 -49 -3 -4 -90 -40 -194 -80 -104 -41
-184 -76 -179 -77 6 -2 32 6 59 18 27 11 101 40 164 64 63 24 140 54 170 68
88 39 365 147 378 147 7 0 12 -9 12 -20 0 -12 -7 -20 -17 -20 -31 0 -103 -32
-96 -43 3 -6 1 -7 -6 -3 -16 10 -53 -3 -45 -16 4 -6 -1 -8 -14 -4 -11 4 -26 1
-34 -7 -7 -7 -18 -12 -25 -10 -6 2 -21 -5 -32 -16 -10 -10 -22 -17 -24 -14 -9
9 -107 -32 -107 -44 0 -7 -11 -13 -24 -13 -13 0 -26 -6 -29 -14 -3 -8 -15 -12
-31 -9 -18 4 -28 0 -32 -11 -4 -9 -18 -16 -33 -16 -15 0 -32 -5 -39 -12 -6 -6
-24 -13 -39 -14 -15 -2 -33 -11 -40 -20 -6 -9 -16 -13 -21 -10 -14 8 -43 -4
-36 -15 7 -12 47 -12 60 0 5 5 20 12 34 16 l25 6 -24 -19 -24 -19 45 -7 c41
-6 69 0 108 23 8 5 27 14 42 21 16 8 24 18 21 26 -3 8 -1 14 5 14 6 0 12 -5
14 -11 2 -7 13 -5 32 4 18 10 23 17 14 20 -7 2 -1 2 15 0 15 -3 27 0 27 6 0 6
10 11 23 11 12 0 45 12 72 25 28 14 58 25 68 25 9 0 17 4 17 9 0 4 24 16 53
25 61 21 110 47 110 61 0 12 30 35 36 29 7 -7 -52 -64 -66 -64 -19 0 -16 -17
5 -30 16 -11 16 -11 0 -6 -10 3 -24 8 -30 11 -7 3 -19 1 -27 -4 -12 -8 -12
-12 2 -25 12 -12 22 -14 40 -7 21 8 24 7 20 -9 -4 -14 3 -20 27 -25 18 -4 35
-3 39 2 3 5 26 17 51 27 44 17 45 17 25 -1 -11 -11 -28 -20 -39 -21 -10 0 -22
-5 -25 -11 -4 -5 -18 -12 -33 -16 -17 -4 -25 -12 -21 -21 11 -30 45 -26 130
16 47 23 87 39 90 36 3 -3 -31 -22 -76 -43 -55 -26 -79 -42 -76 -52 4 -10 -1
-12 -16 -8 -13 4 -36 -4 -60 -19 -21 -13 -43 -24 -49 -24 -15 0 -129 -60 -136
-71 -3 -5 28 -8 70 -7 55 1 76 5 81 15 3 8 3 19 -1 24 -8 13 30 11 44 -3 9 -9
12 -9 12 0 0 6 16 18 35 26 19 8 35 21 35 29 0 15 29 32 38 22 3 -2 -3 -7 -12
-11 -9 -3 -16 -10 -16 -14 0 -4 54 19 121 52 118 58 166 72 95 28 -41 -25 -47
-40 -13 -33 19 4 20 3 5 -7 -10 -6 -18 -15 -18 -19 0 -5 64 -21 143 -35 78
-15 149 -30 157 -33 8 -4 24 -8 35 -10 11 -1 38 -6 60 -10 l40 -7 -30 -7 c-17
-4 -1 -5 36 -2 47 4 69 1 74 -7 6 -10 1 -11 -21 -7 -16 3 -23 4 -16 1 19 -9
14 -27 -6 -22 -14 4 -22 -3 -29 -23 -10 -25 -9 -29 5 -29 11 0 -1 -17 -33 -50
-38 -39 -46 -53 -37 -62 9 -9 26 -7 74 12 88 32 143 34 298 6 74 -14 196 -30
270 -36 74 -7 140 -13 145 -15 6 -1 46 -145 89 -319 l80 -316 719 0 719 0 -6
35 c-10 54 5 72 64 77 27 1 50 1 50 -2 0 -3 35 -5 77 -4 43 1 84 -3 91 -9 6
-5 25 -7 41 -4 36 8 56 -8 71 -55 6 -22 18 -38 26 -38 13 0 15 193 12 1583
l-3 1582 -32 46 c-17 25 -37 50 -45 57 -15 12 -91 26 -238 42 -52 6 -128 22
-169 35 -40 14 -87 25 -105 24 -31 -1 -31 -1 9 -14 l40 -13 -32 -1 c-62 -2
-80 13 -86 66 -11 97 -25 159 -46 199 -19 36 -20 48 -12 85 7 30 7 82 -1 164
-10 107 -16 131 -56 223 -24 56 -48 102 -52 102 -5 0 -14 16 -21 35 -7 19 -19
35 -26 35 -16 0 -17 17 -2 22 11 4 -134 117 -161 125 -8 3 -28 11 -45 18 -50
21 -185 27 -240 11 -32 -10 -54 -12 -66 -6 -24 13 -69 13 -108 -1 -20 -7 -36
-8 -44 -1 -14 11 -126 23 -147 15z m433 -20 c-7 -2 -19 -2 -25 0 -7 3 -2 5 12
5 14 0 19 -2 13 -5z m-583 -113 c0 -5 -5 -10 -11 -10 -5 0 -7 5 -4 10 3 6 8
10 11 10 2 0 4 -4 4 -10z m1090 -539 c-1 -13 -3 -13 -15 3 -19 26 -19 42 0 26
8 -7 15 -20 15 -29z m-527 -122 c21 -5 43 -7 48 -3 16 10 96 -43 133 -89 32
-39 54 -90 69 -157 6 -25 6 -25 -63 -25 -67 1 -71 0 -103 -35 -18 -19 -39 -49
-46 -67 -7 -17 -19 -34 -27 -37 -21 -8 -47 23 -39 48 4 12 8 39 10 60 1 29 9
45 29 62 23 21 26 29 20 61 -8 45 -27 69 -61 78 l-26 6 22 23 c29 31 27 36
-14 36 -28 0 -39 -6 -54 -30 -19 -32 -31 -30 -31 4 0 28 60 88 80 80 8 -3 32
-10 53 -15z m-452 -89 c-10 -8 -7 -32 7 -58 14 -24 14 -100 0 -118 -5 -7 -10
-45 -12 -85 -2 -41 -7 -90 -11 -111 -7 -35 15 -103 38 -119 5 -4 6 -16 3 -27
-5 -15 -1 -24 12 -31 24 -13 39 -50 50 -129 7 -49 6 -65 -5 -74 -8 -6 -11 -19
-7 -32 15 -46 12 -98 -7 -117 -10 -10 -31 -50 -46 -89 -24 -61 -30 -69 -48
-64 -40 13 -67 38 -90 84 -13 26 -31 50 -40 53 -8 4 -15 15 -15 25 0 15 -6 18
-24 15 -15 -3 -25 1 -29 12 -9 22 35 65 60 59 22 -6 48 19 38 36 -10 16 -66
11 -107 -8 -26 -13 -35 -21 -28 -28 8 -8 3 -38 -15 -99 -14 -48 -25 -102 -25
-120 0 -17 -4 -45 -10 -61 -5 -16 -11 -65 -14 -109 -3 -44 -9 -99 -14 -122
-12 -53 -78 -193 -92 -193 -5 0 -10 -8 -10 -17 -1 -16 -2 -16 -12 2 -7 12 -11
73 -9 175 1 123 -4 194 -25 343 -21 149 -24 192 -15 210 6 12 9 14 7 5 -6 -21
-2 -22 24 -8 28 15 34 -4 15 -44 -17 -36 -16 -70 3 -101 10 -15 15 -17 19 -6
5 11 7 11 14 0 7 -11 9 -11 9 2 0 9 7 20 16 23 8 3 13 10 10 14 -8 13 23 52
50 62 13 5 24 17 24 25 0 9 7 23 15 31 16 16 12 91 -7 131 -8 17 -8 26 2 38
10 12 9 16 -4 21 -23 9 -48 -15 -41 -37 5 -14 1 -19 -12 -19 -47 1 -63 40 -50
124 20 130 8 208 -39 254 -19 18 -34 39 -34 46 0 8 14 29 31 47 30 32 30 32
24 6 -4 -14 -4 -31 0 -37 10 -17 35 8 35 36 0 16 4 22 14 18 9 -3 21 6 32 25
12 21 28 31 53 36 41 8 72 31 65 50 -3 7 16 22 48 38 43 21 66 25 119 24 37
-1 64 -4 60 -7z m-468 -335 c3 -6 -15 -31 -39 -55 -25 -24 -43 -49 -40 -56 6
-15 -39 -28 -58 -17 -11 6 -2 26 36 85 47 71 52 76 74 66 12 -6 25 -16 27 -23z
m1317 -28 c0 -8 -3 -17 -6 -20 -10 -9 -46 12 -39 24 9 14 45 11 45 -4z m-1695
-37 c27 -30 12 -34 -15 -5 -13 14 -19 25 -13 25 5 0 18 -9 28 -20z m188 -115
c-3 -9 -8 -14 -10 -11 -3 3 -2 9 2 15 9 16 15 13 8 -4z m-6 -57 c-3 -7 -5 -2
-5 12 0 14 2 19 5 13 2 -7 2 -19 0 -25z m2030 -35 c42 -28 124 -165 109 -181
-4 -4 -11 0 -16 8 -45 77 -105 142 -157 169 l-58 30 49 -5 c27 -3 60 -12 73
-21z m-2005 -85 c-7 -7 -12 -8 -12 -2 0 14 12 26 19 19 2 -3 -1 -11 -7 -17z
m1314 -43 c-9 -14 -22 -35 -30 -47 -8 -13 -17 -41 -21 -63 -9 -58 -25 -95 -41
-95 -18 0 -18 -7 12 102 25 87 46 124 65 113 4 -3 10 -1 14 5 3 5 9 10 12 10
3 0 -2 -11 -11 -25z m1026 -87 c2 -23 5 -33 12 -50 5 -10 6 -23 3 -30 -3 -8
-8 -3 -14 12 -18 46 -24 80 -13 80 5 0 11 -6 12 -12z m-2057 -8 c3 -5 1 -10
-4 -10 -6 0 -11 5 -11 10 0 6 2 10 4 10 3 0 8 -4 11 -10z m767 -192 c35 -17
41 -42 17 -71 l-18 -22 -1 43 c0 29 -4 42 -14 42 -8 0 -16 -6 -19 -12 -2 -7
-7 -10 -11 -7 -8 7 3 39 13 39 4 0 19 -6 33 -12z m-402 -64 c10 -10 10 -14 2
-14 -7 0 -12 -13 -12 -31 0 -56 -24 -161 -37 -166 -8 -3 -20 -21 -28 -39 -19
-47 -52 -47 -60 0 -4 19 -2 43 4 53 14 27 50 163 53 201 2 28 3 29 33 19 16
-5 37 -16 45 -23z m270 -201 c0 -10 -4 -24 -8 -31 -6 -8 -9 -2 -9 18 0 16 4
30 9 30 4 0 8 -8 8 -17z m-27 -68 c-3 -9 -8 -14 -10 -11 -3 3 -2 9 2 15 9 16
15 13 8 -4z m-6 -39 c1 -1 -13 -2 -32 -2 -27 0 -32 3 -24 13 10 11 33 6 56
-11z m1170 -263 c2 -6 -36 -53 -85 -104 -50 -52 -104 -110 -121 -129 l-30 -35
-1 29 c0 19 11 39 35 63 19 19 35 39 35 43 0 12 98 90 113 90 5 0 7 7 3 15 -4
10 1 15 14 15 14 0 18 5 13 16 -4 11 -2 15 7 12 8 -2 15 -9 17 -15z m-303
-305 c-16 -55 -54 -107 -41 -58 3 10 0 21 -6 23 -14 4 22 57 40 57 10 0 12 -6
7 -22z m-354 -178 c0 -5 -4 -10 -10 -10 -5 0 -10 5 -10 10 0 6 5 10 10 10 6 0
10 -4 10 -10z m-1461 -149 c17 -10 19 -15 9 -30 -9 -15 -29 -21 -87 -26 -96
-8 -197 -10 -281 -5 -52 3 -74 0 -109 -18 -68 -34 -73 -26 -6 9 32 17 64 36
69 44 6 7 26 22 44 33 28 17 39 18 74 9 33 -8 51 -7 92 7 29 10 63 26 76 36
24 18 25 18 61 -15 21 -18 47 -38 58 -44z m-1047 -16 c-20 -9 -31 -19 -26 -26
4 -8 0 -9 -15 -4 -11 3 -26 3 -33 -1 -9 -6 -5 -10 12 -16 22 -6 20 -7 -10 -6
-56 2 -72 -1 -65 -12 4 -6 -7 -10 -24 -10 -17 0 -31 -3 -31 -8 0 -4 -27 -16
-59 -26 -33 -10 -59 -24 -58 -30 1 -6 -4 -10 -12 -8 -22 4 -52 -9 -45 -20 4
-6 -1 -8 -14 -4 -11 4 -26 1 -34 -7 -7 -7 -26 -17 -41 -21 -16 -4 -25 -11 -21
-17 3 -6 -2 -10 -12 -8 -28 3 -75 -12 -68 -22 3 -5 -2 -6 -10 -3 -8 3 -24 -4
-35 -15 -20 -20 -21 -20 -21 -2 0 14 11 23 38 32 20 6 48 17 62 24 55 28 139
65 147 65 4 0 20 6 35 14 14 8 50 23 80 34 29 12 100 41 158 66 58 24 112 45
120 45 8 0 0 -6 -18 -14z m418 1 c0 -2 -7 -9 -15 -16 -13 -11 -14 -10 -9 4 5
14 24 23 24 12z m-285 -66 c-3 -5 -11 -10 -16 -10 -6 0 -7 5 -4 10 3 6 11 10
16 10 6 0 7 -4 4 -10z m360 -40 c-3 -5 -12 -10 -18 -10 -7 0 -6 4 3 10 19 12
23 12 15 0z m-758 -46 c-3 -3 -12 -4 -19 -1 -8 3 -5 6 6 6 11 1 17 -2 13 -5z
m3046 -145 c-4 -4 -25 -4 -47 1 -21 5 -44 6 -50 4 -7 -3 -23 -1 -36 4 -21 8
-16 10 33 16 44 6 57 11 57 24 1 13 7 10 26 -12 14 -16 22 -32 17 -37z m-2736
-15 c-3 -3 -12 -4 -19 -1 -8 3 -5 6 6 6 11 1 17 -2 13 -5z m1996 -185 c-12
-12 -99 -23 -119 -15 -26 10 -5 23 46 29 25 3 39 4 33 1 -21 -9 -15 -23 6 -17
13 3 18 10 13 21 -5 15 -4 15 12 3 9 -8 13 -18 9 -22z m1196 -213 c42 -29 89
-50 179 -81 19 -7 14 -23 -10 -31 -13 -3 -42 -27 -65 -53 -35 -37 -43 -42 -43
-25 0 20 -17 44 -32 44 -4 0 -23 -23 -42 -52 -34 -50 -36 -51 -44 -27 -6 13
-6 31 -2 39 9 17 6 33 -11 77 -10 25 -10 42 1 87 7 31 14 56 16 56 1 0 25 -15
53 -34z m-962 -128 c-3 -8 -6 -5 -6 6 -1 11 2 17 5 13 3 -3 4 -12 1 -19z m16
-78 c4 -36 3 -46 -3 -30 -8 25 -13 97 -6 89 2 -2 6 -29 9 -59z m211 10 l7 -25
-15 25 c-17 28 -21 50 -7 35 5 -6 12 -21 15 -35z"/>
<path d="M6270 3579 c0 -6 8 -23 19 -37 10 -15 22 -38 26 -51 6 -21 9 -22 17
-7 12 22 -8 83 -32 96 -24 13 -30 13 -30 -1z"/>
<path d="M5523 3313 c-47 -16 -53 -33 -23 -65 21 -23 26 -18 32 32 2 16 9 25
20 25 10 0 23 6 30 13 16 16 -4 15 -59 -5z"/>
<path d="M5494 3024 c3 -9 6 -19 6 -23 0 -13 67 -81 74 -74 15 15 5 71 -17 91
-28 26 -72 30 -63 6z"/>
<path d="M5988 743 c7 -3 16 -2 19 1 4 3 -2 6 -13 5 -11 0 -14 -3 -6 -6z"/>
<path d="M140 4406 c0 -9 5 -16 10 -16 6 0 10 4 10 9 0 6 -4 13 -10 16 -5 3
-10 -1 -10 -9z"/>
<path d="M4633 4397 c-40 -5 -73 -13 -73 -18 0 -5 -5 -9 -10 -9 -6 0 -33 -11
-62 -25 -28 -14 -64 -25 -79 -25 -16 0 -36 -8 -46 -18 -10 -11 -32 -27 -49
-37 -33 -18 -50 -51 -79 -145 -10 -30 -22 -71 -28 -90 -14 -42 -12 -223 4
-297 8 -42 16 -56 43 -72 18 -11 40 -29 50 -40 17 -19 56 -18 56 1 0 5 8 8 18
7 26 -3 51 11 46 26 -3 7 2 15 10 18 9 4 16 13 16 22 0 8 4 15 8 15 5 0 19 10
32 23 14 12 39 27 56 33 l31 11 -8 -35 -7 -35 43 47 c53 55 90 72 121 56 14
-8 20 -19 17 -31 -3 -10 0 -19 6 -19 6 0 11 -9 11 -20 0 -18 2 -18 32 -6 17 8
35 23 39 34 10 25 49 49 49 30 0 -7 -7 -26 -16 -43 -10 -19 -13 -42 -9 -62 5
-30 25 -56 25 -34 0 6 5 11 11 11 22 0 35 26 38 73 1 26 -2 47 -6 47 -20 0
-11 48 12 68 l24 21 38 -31 38 -30 3 34 c3 40 21 88 33 88 5 0 9 7 9 15 0 8 4
15 10 15 5 0 7 6 5 13 -3 6 -1 18 4 26 7 10 13 11 30 1 25 -13 23 -35 -3 -35
-22 0 -41 -31 -25 -40 5 -4 27 9 46 29 20 20 45 36 55 36 16 0 18 7 14 53 -6
80 -27 189 -42 218 -19 37 -85 87 -147 112 -43 17 -76 21 -187 22 -74 1 -168
-3 -207 -8z m301 -473 c25 -25 19 -32 -36 -49 -72 -21 -81 -20 -67 6 9 17 13
19 20 8 7 -11 9 -10 9 4 0 10 8 17 20 17 11 0 23 7 26 15 8 19 9 19 28 -1z
m81 -14 c-3 -5 -12 -10 -18 -10 -7 0 -6 4 3 10 19 12 23 12 15 0z m-225 -140
c0 -5 -5 -10 -11 -10 -5 0 -7 5 -4 10 3 6 8 10 11 10 2 0 4 -4 4 -10z"/>
<path d="M230 4376 c0 -9 5 -16 10 -16 6 0 10 4 10 9 0 6 -4 13 -10 16 -5 3
-10 -1 -10 -9z"/>
<path d="M550 4380 c0 -5 5 -10 11 -10 5 0 7 5 4 10 -3 6 -8 10 -11 10 -2 0
-4 -4 -4 -10z"/>
<path d="M835 4380 c3 -5 8 -10 11 -10 2 0 4 5 4 10 0 6 -5 10 -11 10 -5 0 -7
-4 -4 -10z"/>
<path d="M625 4350 c3 -5 8 -10 11 -10 2 0 4 5 4 10 0 6 -5 10 -11 10 -5 0 -7
-4 -4 -10z"/>
<path d="M154 4321 c-9 -22 -19 -30 -45 -33 -23 -4 -37 -1 -42 8 -13 23 -29
17 -17 -6 10 -18 8 -20 -20 -20 l-30 0 0 -2135 0 -2135 166 2 165 3 0 1585 c0
1731 7 2237 34 2335 38 140 99 232 184 279 73 39 138 34 301 -26 69 -25 233
-85 365 -132 375 -136 703 -259 778 -291 26 -11 20 7 -9 28 -33 24 -435 178
-824 317 -74 26 -227 82 -340 123 -223 83 -281 99 -301 86 -19 -12 -109 -11
-109 1 0 6 -4 10 -10 10 -5 0 -7 -7 -3 -16 10 -27 -100 -14 -165 19 -30 15
-57 27 -61 27 -3 0 -11 -13 -17 -29z"/>
<path d="M310 4340 c0 -5 5 -10 10 -10 6 0 10 5 10 10 0 6 -4 10 -10 10 -5 0
-10 -4 -10 -10z"/>
<path d="M7275 4328 c-332 -19 -354 -25 -70 -21 290 4 325 7 325 23 0 10 -43
10 -255 -2z"/>
<path d="M835 4270 c-3 -5 -1 -10 4 -10 6 0 11 5 11 10 0 6 -2 10 -4 10 -3 0
-8 -4 -11 -10z"/>
<path d="M3860 4160 c0 -12 24 -12 60 0 21 7 19 8 -17 9 -24 1 -43 -3 -43 -9z"/>
<path d="M595 4144 c-71 -37 -128 -126 -160 -249 -16 -64 -16 -47 -30 -2760
-4 -615 -9 -1123 -11 -1127 -3 -4 100 -8 230 -8 l234 0 74 48 c40 27 255 169
478 316 223 148 430 285 460 305 55 36 55 36 60 95 3 35 10 61 18 64 6 2 12
-5 13 -15 1 -10 2 -27 3 -38 0 -11 -4 -37 -11 -57 -7 -21 -10 -38 -7 -38 12 0
-51 -67 -95 -100 -25 -19 -59 -47 -76 -62 -16 -16 -33 -28 -36 -28 -3 0 -52
-36 -110 -80 -86 -67 -327 -244 -418 -308 -13 -9 -35 -27 -50 -38 -14 -12 -42
-31 -61 -43 l-35 -21 200 0 200 0 90 70 c193 151 235 183 367 286 141 109 151
120 212 239 l37 70 -1 175 c-1 96 -1 183 -1 194 1 15 6 17 33 12 58 -12 553
-37 603 -31 87 11 155 28 155 39 0 7 -36 85 -80 174 -44 90 -80 164 -80 166 0
2 -51 109 -114 238 l-114 234 -91 -4 c-104 -5 -201 5 -201 20 0 7 44 9 141 5
l140 -6 -6 22 c-4 12 -15 36 -24 52 -16 28 -22 30 -66 27 -27 -1 -51 -6 -54
-10 -4 -5 -15 -8 -26 -8 -11 0 -39 -3 -63 -7 -40 -7 -43 -6 -53 20 -13 34 -7
349 7 363 5 5 113 11 247 12 211 3 237 5 237 19 0 20 28 28 100 30 59 0 120
17 70 18 -15 1 -31 6 -36 11 -15 15 -204 26 -204 12 0 -7 -18 -12 -42 -13 -44
-1 -41 -3 24 -14 20 -3 38 -11 41 -18 3 -9 -21 -12 -95 -12 -99 -1 -109 12
-13 16 l50 2 -60 7 c-33 4 -89 9 -125 11 l-65 3 75 6 75 6 -100 1 c-64 1 -93
-2 -80 -7 20 -8 20 -9 -1 -9 -12 -1 -41 2 -66 5 l-45 6 -2 51 c-3 64 -5 67
-46 67 -19 0 -37 5 -40 11 -4 6 -6 207 -6 448 l2 438 -36 88 c-42 105 -52 118
-108 138 -23 8 -112 41 -197 72 -174 65 -217 80 -480 170 -102 35 -234 82
-295 105 -147 55 -400 140 -416 140 -8 0 -27 -7 -44 -16z m261 -459 c16 -8 43
-15 60 -15 17 0 51 -8 75 -19 24 -10 85 -29 134 -41 77 -18 271 -70 328 -86
13 -4 17 1 17 21 0 14 6 28 14 31 13 5 236 -47 282 -66 12 -5 24 -21 27 -39 7
-35 49 -61 105 -65 26 -1 38 -7 40 -19 2 -9 8 -17 13 -17 6 0 8 -8 4 -19 -10
-32 -7 -163 4 -174 15 -15 14 -104 0 -113 -8 -5 -10 -38 -6 -107 l5 -100 -166
6 c-294 11 -948 43 -1007 50 -19 2 -20 -5 -22 -358 -2 -312 -19 -639 -31 -582
-2 9 -9 17 -17 17 -7 0 -18 21 -25 48 -7 26 -15 41 -17 35 -3 -7 -18 -13 -34
-13 -22 0 -29 5 -29 19 0 11 6 21 13 24 10 4 10 7 0 18 -11 11 -13 11 -13 -1
0 -10 -4 -9 -18 3 -10 10 -22 14 -25 10 -4 -3 -7 -1 -7 5 0 7 5 12 10 12 13 0
13 43 -1 57 -11 11 -22 511 -12 590 4 35 10 45 34 55 20 9 29 20 29 36 0 15 9
27 28 35 15 7 46 25 70 41 45 31 53 57 26 87 -10 11 -14 25 -10 36 5 13 9 14
15 5 10 -17 21 141 22 323 1 170 9 238 34 265 22 24 16 23 51 5z m1115 -235
c23 -13 26 -60 4 -60 -18 0 -49 45 -40 60 8 13 12 13 36 0z m-1480 -110 c18
-10 19 -23 19 -200 l0 -190 -24 0 c-13 0 -29 6 -35 14 -13 16 -19 355 -7 375
9 14 22 14 47 1z m1516 -687 c-3 -10 -5 -4 -5 12 0 17 2 24 5 18 2 -7 2 -21 0
-30z m3 -132 c11 -22 13 -763 1 -865 -3 -34 -11 -61 -18 -64 -10 -3 -13 96
-13 472 0 299 4 476 10 476 5 0 14 -9 20 -19z m863 -98 c-7 -2 -21 -2 -30 0
-10 3 -4 5 12 5 17 0 24 -2 18 -5z m-494 -13 c52 0 33 -7 -41 -15 -60 -6 -68
-5 -68 11 0 14 6 16 38 10 20 -3 52 -6 71 -6z m21 -40 c0 -5 -17 -10 -37 -10
-28 0 -34 3 -23 10 20 13 60 13 60 0z m307 -6 c-3 -3 -12 -4 -19 -1 -8 3 -5 6
6 6 11 1 17 -2 13 -5z m-267 -444 c-8 -5 -31 -9 -50 -9 -29 0 -31 2 -15 9 11
5 34 9 50 9 23 1 26 -2 15 -9z m-122 -7 c-10 -2 -26 -2 -35 0 -10 3 -2 5 17 5
19 0 27 -2 18 -5z m179 1 c-3 -3 -12 -4 -19 -1 -8 3 -5 6 6 6 11 1 17 -2 13
-5z m-1197 -719 c0 -8 -4 -15 -10 -15 -5 0 -10 7 -10 15 0 8 5 15 10 15 6 0
10 -7 10 -15z m40 -31 c0 -8 -5 -12 -10 -9 -6 4 -8 11 -5 16 9 14 15 11 15 -7z
m-240 -144 c-8 -5 -22 -9 -30 -9 -10 0 -8 3 5 9 27 12 43 12 25 0z m-70 -30
c-20 -13 -33 -13 -25 0 3 6 14 10 23 10 15 0 15 -2 2 -10z m967 4 c-3 -3 -12
-4 -19 -1 -8 3 -5 6 6 6 11 1 17 -2 13 -5z m-1153 -89 c-22 -16 -44 -19 -44
-6 0 10 52 31 59 25 3 -3 -4 -11 -15 -19z m694 -157 c-3 -7 -13 -13 -23 -13
-10 0 -20 6 -22 13 -3 7 5 12 22 12 17 0 25 -5 23 -12z m-1069 -404 c1 -48 4
-90 6 -95 3 -4 1 -18 -4 -32 -5 -14 -6 -40 -1 -60 6 -27 4 -37 -6 -41 -8 -3
-14 -2 -15 2 -2 19 -9 100 -10 122 -2 51 13 190 21 190 4 0 8 -39 9 -86z"/>
<path d="M3565 4150 c3 -5 11 -10 16 -10 6 0 7 5 4 10 -3 6 -11 10 -16 10 -6
0 -7 -4 -4 -10z"/>
<path d="M3688 4153 c12 -2 32 -2 45 0 12 2 2 4 -23 4 -25 0 -35 -2 -22 -4z"/>
<path d="M5150 3920 c0 -5 5 -10 11 -10 5 0 7 5 4 10 -3 6 -8 10 -11 10 -2 0
-4 -4 -4 -10z"/>
<path d="M4675 3773 c15 -16 55 -26 55 -14 0 6 -6 11 -14 11 -8 0 -23 3 -33 6
-12 5 -15 4 -8 -3z"/>
<path d="M4682 3720 c-33 -21 -50 -46 -38 -58 4 -3 11 -1 15 7 5 7 11 12 15
12 21 -3 26 1 26 20 0 16 4 19 21 14 15 -5 20 -3 17 6 -7 21 -21 20 -56 -1z"/>
<path d="M4410 3565 l-25 -13 34 1 c19 1 36 8 39 15 5 16 -17 15 -48 -3z"/>
<path d="M4607 3564 c16 -14 21 -25 16 -42 -5 -21 -3 -23 23 -21 16 2 40 -4
52 -13 26 -18 20 -25 -32 -43 -35 -12 -47 -35 -18 -35 25 0 102 56 102 74 0
23 -27 44 -73 58 -23 6 -53 18 -67 26 l-25 14 22 -18z"/>
<path d="M4883 3543 c-7 -20 -8 -33 -2 -33 13 0 22 24 17 47 -3 13 -7 9 -15
-14z"/>
<path d="M4340 3534 c-19 -13 -28 -24 -20 -24 16 1 66 38 59 44 -2 2 -20 -7
-39 -20z"/>
<path d="M4760 3378 c-62 -21 -101 -58 -72 -69 9 -4 31 2 49 12 20 13 34 16
38 9 3 -5 10 -10 15 -10 14 0 43 61 33 69 -4 4 -33 -1 -63 -11z"/>
<path d="M4630 3304 c0 -14 3 -14 15 -4 8 7 15 14 15 16 0 2 -7 4 -15 4 -8 0
-15 -7 -15 -16z"/>
<path d="M4750 3287 c-30 -15 -38 -37 -11 -30 21 5 47 30 40 38 -3 2 -15 -1
-29 -8z"/>
<path d="M4861 2994 c0 -11 3 -14 6 -6 3 7 2 16 -1 19 -3 4 -6 -2 -5 -13z"/>
<path d="M4836 2708 c4 -13 17 -39 29 -58 13 -20 33 -58 45 -85 12 -28 25 -52
29 -55 3 -3 30 -54 60 -115 30 -60 67 -125 83 -143 15 -18 28 -37 28 -42 0 -6
9 -10 20 -10 11 0 20 -6 20 -14 0 -16 30 -30 41 -19 5 5 -5 17 -21 28 -18 12
-30 29 -30 42 0 20 -60 142 -85 173 -7 8 -20 29 -28 46 -14 27 -40 61 -87 114
-20 23 -49 69 -63 103 -6 15 -15 27 -19 27 -4 0 -8 7 -8 15 0 8 -5 15 -11 15
-6 0 -8 -9 -3 -22z"/>
<path d="M3562 2583 c48 -2 129 -2 180 0 51 1 12 3 -87 3 -99 0 -141 -2 -93
-3z"/>
<path d="M4588 2548 c7 -26 102 -138 102 -121 0 15 -56 96 -84 122 l-25 23 7
-24z"/>
<path d="M5140 2500 c0 -5 7 -10 16 -10 8 0 12 5 9 10 -3 6 -10 10 -16 10 -5
0 -9 -4 -9 -10z"/>
<path d="M5160 2459 c0 -18 2 -19 15 -9 8 7 15 16 15 21 0 5 -7 9 -15 9 -9 0
-15 -9 -15 -21z"/>
<path d="M5180 2430 c0 -5 5 -10 11 -10 5 0 7 5 4 10 -3 6 -8 10 -11 10 -2 0
-4 -4 -4 -10z"/>
<path d="M4600 2406 c0 -3 9 -21 20 -41 11 -20 20 -42 20 -50 0 -15 -53 -34
-90 -32 -34 3 -38 -29 -7 -61 24 -26 31 -42 28 -68 0 -7 -26 -23 -56 -38 -30
-14 -55 -29 -55 -32 0 -4 35 -4 78 0 59 4 71 3 52 -5 -14 -5 -53 -13 -87 -16
-92 -9 -106 -35 -29 -54 l31 -7 -35 -1 c-56 -2 -170 -37 -185 -57 -8 -11 -14
-35 -14 -54 l0 -35 13 31 c24 56 56 71 143 72 69 0 74 -1 43 -10 -75 -21 -121
-40 -142 -59 -22 -19 -21 -19 12 1 44 25 154 28 188 4 12 -8 20 -19 18 -23 -3
-4 4 -18 15 -29 l20 -22 -23 0 c-21 0 -21 -1 -3 -14 26 -19 30 -49 5 -36 -10
6 -27 10 -37 10 -13 0 -9 -6 13 -19 31 -19 67 -61 59 -69 -2 -2 -25 3 -52 12
-80 27 -223 -1 -264 -51 -12 -14 -11 -15 6 -10 11 3 40 9 65 12 25 4 53 12 63
17 33 17 99 12 114 -8 12 -16 27 -19 101 -19 l87 0 -3 27 c-1 14 2 29 8 33 5
3 10 35 10 71 0 36 5 70 10 77 80 95 107 162 97 238 -4 29 -1 41 10 48 13 7 7
23 -40 102 -30 52 -68 109 -84 128 -25 29 -32 32 -50 23 -12 -7 -23 -8 -25 -3
-3 9 -48 25 -48 17z m75 -476 c3 -5 -1 -10 -10 -10 -9 0 -13 5 -10 10 3 6 8
10 10 10 2 0 7 -4 10 -10z"/>
<path d="M3338 2393 c12 -2 30 -2 40 0 9 3 -1 5 -23 4 -22 0 -30 -2 -17 -4z"/>
<path d="M3500 2389 c0 -3 6 -12 14 -18 8 -6 19 -25 26 -41 12 -28 16 -30 71
-30 43 0 60 4 67 16 5 9 15 14 21 10 6 -4 9 -12 5 -17 -4 -7 5 -9 22 -7 17 2
30 9 30 18 1 8 2 22 3 31 0 9 17 23 37 30 34 13 23 14 -130 15 -91 0 -166 -3
-166 -7z"/>
<path d="M5238 2376 c-8 -19 -9 -32 -2 -44 15 -24 28 -25 54 -4 19 16 21 22
11 40 -6 12 -16 22 -21 22 -6 0 -5 -9 2 -20 10 -15 10 -22 0 -32 -10 -10 -16
-9 -29 4 -14 14 -14 20 -3 33 7 8 10 18 7 22 -4 3 -12 -7 -19 -21z"/>
<path d="M5266 2361 c-4 -7 -5 -15 -2 -18 9 -9 19 4 14 18 -4 11 -6 11 -12 0z"/>
<path d="M5190 2341 c0 -6 5 -13 10 -16 6 -3 10 1 10 9 0 9 -4 16 -10 16 -5 0
-10 -4 -10 -9z"/>
<path d="M4260 2316 c-5 -15 -21 -31 -34 -36 -24 -9 -53 -47 -43 -56 10 -10
125 -15 131 -5 4 5 2 12 -4 16 -20 12 -9 23 30 29 23 4 43 14 49 25 9 16 5 19
-40 24 -28 4 -57 11 -65 18 -11 9 -16 6 -24 -15z"/>
<path d="M3478 2303 c7 -3 16 -2 19 1 4 3 -2 6 -13 5 -11 0 -14 -3 -6 -6z"/>
<path d="M3273 2283 c9 -2 23 -2 30 0 6 3 -1 5 -18 5 -16 0 -22 -2 -12 -5z"/>
<path d="M3078 2263 c7 -3 16 -2 19 1 4 3 -2 6 -13 5 -11 0 -14 -3 -6 -6z"/>
<path d="M3736 2251 c-34 -13 -2 -20 47 -9 26 5 47 12 47 14 0 7 -74 3 -94 -5z"/>
<path d="M3773 2217 c-93 -32 -123 -47 -127 -61 -3 -11 -8 -17 -11 -14 -3 3
-3 17 1 32 4 19 14 27 40 32 19 3 37 10 40 15 7 12 4 12 -47 -6 -24 -9 -48
-14 -55 -11 -13 5 -3 -35 25 -93 l16 -35 5 44 5 43 80 27 c129 44 149 52 160
61 15 14 -1 10 -132 -34z"/>
<path d="M2843 2243 c9 -2 23 -2 30 0 6 3 -1 5 -18 5 -16 0 -22 -2 -12 -5z"/>
<path d="M2753 2233 c9 -2 25 -2 35 0 9 3 1 5 -18 5 -19 0 -27 -2 -17 -5z"/>
<path d="M2633 2223 c9 -2 23 -2 30 0 6 3 -1 5 -18 5 -16 0 -22 -2 -12 -5z"/>
<path d="M2533 2213 c9 -2 25 -2 35 0 9 3 1 5 -18 5 -19 0 -27 -2 -17 -5z"/>
<path d="M4134 2199 c-10 -17 7 -49 27 -49 16 0 20 6 17 27 -3 26 -32 41 -44
22z"/>
<path d="M4205 2180 c-3 -5 -1 -10 4 -10 6 0 11 5 11 10 0 6 -2 10 -4 10 -3 0
-8 -4 -11 -10z"/>
<path d="M3740 2150 c0 -5 5 -10 10 -10 6 0 10 5 10 10 0 6 -4 10 -10 10 -5 0
-10 -4 -10 -10z"/>
<path d="M5172 2138 c3 -7 13 -15 22 -16 12 -3 17 1 14 10 -3 7 -13 15 -22 16
-12 3 -17 -1 -14 -10z"/>
<path d="M5196 2102 c-3 -6 -1 -14 5 -17 14 -9 20 -2 10 14 -6 8 -11 9 -15 3z"/>
<path d="M3066 1914 c-4 -10 -1 -21 6 -25 16 -10 25 18 10 33 -6 6 -12 3 -16
-8z"/>
<path d="M3925 1870 c3 -5 8 -10 11 -10 2 0 4 5 4 10 0 6 -5 10 -11 10 -5 0
-7 -4 -4 -10z"/>
<path d="M4002 1810 c-43 -10 -57 -23 -39 -38 10 -9 21 -5 48 18 19 16 32 29
29 29 -3 -1 -20 -5 -38 -9z"/>
<path d="M4404 1643 c-41 -3 -53 -8 -57 -23 -3 -10 -26 -29 -53 -42 -36 -17
-48 -29 -49 -47 -2 -22 1 -23 39 -17 57 10 122 40 173 82 48 39 54 55 21 52
-13 -1 -46 -3 -74 -5z"/>
<path d="M2900 1571 c0 -6 4 -13 10 -16 6 -3 7 1 4 9 -7 18 -14 21 -14 7z"/>
<path d="M3230 1571 c0 -5 7 -12 16 -15 14 -5 15 -4 4 9 -14 17 -20 19 -20 6z"/>
<path d="M3908 1123 c-10 -2 -18 -8 -18 -13 0 -4 -26 -16 -57 -26 -32 -10 -64
-24 -71 -31 -7 -7 -22 -13 -33 -13 -10 0 -19 -4 -19 -10 0 -5 6 -10 14 -10 8
0 16 -5 18 -10 3 -11 28 -3 131 43 40 17 45 23 30 29 -10 5 -3 5 17 2 36 -6
69 -29 58 -40 -4 -3 -16 0 -28 6 -23 12 -50 7 -50 -10 0 -5 6 -10 14 -10 8 0
16 -5 18 -11 2 -7 23 -2 57 16 56 28 56 45 1 45 -16 0 -29 8 -35 22 -11 24
-21 28 -47 21z m-51 -59 c-3 -3 -12 -4 -19 -1 -8 3 -5 6 6 6 11 1 17 -2 13 -5z
m-60 -30 c-3 -3 -12 -4 -19 -1 -8 3 -5 6 6 6 11 1 17 -2 13 -5z"/>
<path d="M3840 1020 c0 -19 39 -31 61 -19 17 9 19 13 8 20 -19 12 -69 11 -69
-1z"/>
<path d="M4003 1023 c-18 -6 -16 -23 1 -23 8 0 16 -5 18 -11 3 -9 10 -8 28 1
l23 13 -24 13 c-26 15 -28 15 -46 7z"/>
<path d="M3672 1013 c-16 -3 -22 -10 -18 -19 4 -11 2 -13 -11 -6 -11 7 -34 1
-75 -18 -33 -14 -60 -30 -61 -35 -3 -15 54 -11 64 5 7 12 10 12 17 2 5 -8 16
-10 27 -6 14 6 17 4 12 -9 -4 -10 -1 -18 6 -18 7 -1 23 -3 37 -4 14 -2 37 4
52 11 42 22 56 16 24 -10 l-28 -23 35 -7 c34 -6 61 0 127 31 128 60 141 72 97
87 -33 12 -63 -8 -37 -24 8 -5 11 -10 5 -10 -5 0 -16 4 -24 9 -14 9 -22 7 -93
-23 -22 -9 -38 -12 -38 -6 0 5 6 10 14 10 8 0 24 8 37 19 l23 18 -22 12 c-23
12 -62 7 -62 -9 0 -5 8 -14 18 -19 16 -10 16 -10 0 -11 -10 0 -18 5 -18 10 0
16 -43 12 -86 -9 -21 -11 -41 -18 -43 -16 -8 9 12 24 40 30 20 5 29 12 27 23
-3 18 -13 21 -46 15z m44 -88 c-23 -17 -36 -19 -36 -6 0 5 8 12 18 14 32 9 37
6 18 -8z m104 -25 c0 -5 -5 -10 -11 -10 -5 0 -7 5 -4 10 3 6 8 10 11 10 2 0 4
-4 4 -10z"/>
<path d="M3061 941 c-12 -8 -12 -12 -2 -25 19 -23 31 -20 31 9 0 27 -6 30 -29
16z"/>
<path d="M3145 919 c-9 -14 4 -29 26 -29 10 0 19 -4 19 -10 0 -5 -4 -10 -9
-10 -5 0 -34 -24 -64 -53 -41 -39 -57 -62 -62 -91 -9 -48 -58 -104 -110 -127
-48 -21 -389 -76 -714 -114 -116 -13 -151 -24 -151 -48 0 -14 142 -2 294 24
66 11 133 18 149 15 16 -3 95 3 176 15 159 23 236 50 312 111 46 37 63 65 73
119 7 41 38 74 60 66 8 -3 38 -2 66 2 47 8 50 7 44 -11 -5 -18 -2 -19 58 -11
87 11 118 10 233 -9 102 -17 267 -44 480 -78 349 -56 512 -71 544 -48 l21 15
-23 11 c-19 10 -457 82 -782 128 -55 8 -131 20 -170 28 -38 8 -87 17 -107 20
-21 4 -38 13 -38 20 0 17 -143 56 -206 56 -27 0 -64 4 -81 9 -20 6 -35 6 -38
0z"/>
<path d="M1690 88 l-103 -83 263 -3 c294 -3 309 0 275 52 -10 14 -21 26 -26
26 -5 0 -5 7 -2 17 5 12 3 14 -7 8 -8 -5 -19 0 -29 13 -13 17 -34 23 -111 32
-52 6 -109 13 -126 15 -27 5 -44 -5 -134 -77z"/>
</g>
</svg>
